<svg id="Group_1323" data-name="Group 1323" xmlns="http://www.w3.org/2000/svg" viewBox="3250.822 3132.866 563.031 563.039">
  <defs>
    <style>
      .cls-1 {
        fill: #1c1c1c;
      }
    </style>
  </defs>
  <path id="Path_297" data-name="Path 297" class="cls-1" d="M407.652,0H155.373C69.7,0,0,69.7,0,155.378V407.66c0,85.677,69.7,155.378,155.373,155.378H407.652c85.679,0,155.38-69.7,155.38-155.378V155.378C563.035,69.7,493.331,0,407.652,0ZM513.08,407.66A105.543,105.543,0,0,1,407.655,513.083H155.373A105.537,105.537,0,0,1,49.955,407.66V155.378A105.541,105.541,0,0,1,155.373,49.956H407.652A105.545,105.545,0,0,1,513.077,155.378V407.66Z" transform="translate(3250.822 3132.866)"/>
  <path id="Path_298" data-name="Path 298" class="cls-1" d="M186.047,40.97c-80,0-145.079,65.082-145.079,145.081s65.081,145.074,145.079,145.074,145.079-65.078,145.079-145.074S266.044,40.97,186.047,40.97Zm0,240.2a95.122,95.122,0,1,1,95.124-95.119A95.23,95.23,0,0,1,186.047,281.166Z" transform="translate(3346.239 3228.358)"/>
  <path id="Path_299" data-name="Path 299" class="cls-1" d="M155.554,28.251a36.614,36.614,0,1,0,25.91,10.724A36.781,36.781,0,0,0,155.554,28.251Z" transform="translate(3527.928 3198.715)"/>
</svg>
