<svg xmlns="http://www.w3.org/2000/svg" viewBox="2395.239 3122.866 651.168 528.941">
  <defs>
    <style>
      .cls-1 {
        fill: #1c1c1c;
      }
    </style>
  </defs>
  <path id="Path_364" data-name="Path 364" class="cls-1" d="M651.169,120.023a266.758,266.758,0,0,1-76.7,21.038,134.137,134.137,0,0,0,58.716-73.854A269.3,269.3,0,0,1,548.3,99.637,133.685,133.685,0,0,0,320.681,221.426c-111-5.576-209.433-58.758-275.311-139.571A133.739,133.739,0,0,0,86.712,260.162,133.6,133.6,0,0,1,26.205,243.4v1.668A133.715,133.715,0,0,0,133.343,376.05a135.285,135.285,0,0,1-35.2,4.68A128.286,128.286,0,0,1,73,378.248a133.653,133.653,0,0,0,124.757,92.776A268.012,268.012,0,0,1,31.861,528.113,283.947,283.947,0,0,1,0,526.282a377.589,377.589,0,0,0,204.754,60.1c245.729,0,380.049-203.537,380.049-380.052l-.448-17.294A266.755,266.755,0,0,0,651.169,120.023Z" transform="translate(2395.238 3065.425)"/>
</svg>
